<svg version="1.1" id="Layer_1" xmlns="http://www.w3.org/2000/svg" xmlns:xlink="http://www.w3.org/1999/xlink" x="0px" y="0px"
	 width="100%" viewBox="0 0 386 275" enable-background="new 0 0 386 275" xml:space="preserve">
<path fill="#FDFCFD" opacity="1.000000" stroke="none" 
	d="
M236.000000,276.000000 
	C158.666672,276.000000 81.833290,275.970825 5.000157,276.096191 
	C1.575724,276.101776 0.899533,275.424103 0.904190,271.999878 
	C1.025242,183.000031 1.025242,93.999969 0.904190,5.000130 
	C0.899532,1.575899 1.576201,0.901830 5.000085,0.904901 
	C130.999985,1.017890 257.000031,1.017890 382.999908,0.904901 
	C386.423798,0.901830 387.100464,1.575899 387.095795,5.000130 
	C386.974762,93.999962 386.974762,183.000031 387.095825,271.999878 
	C387.100464,275.424103 386.425110,276.107666 382.999725,276.097656 
	C334.166779,275.954498 285.333344,276.000000 236.000000,276.000000 
z"/>
<path fill="#08096B" opacity="1.000000" stroke="none" 
	d="
M297.711304,176.522675 
	C299.428467,179.536636 299.606750,182.307388 297.981140,184.928680 
	C282.279175,210.247986 262.152832,230.672089 233.168976,240.104492 
	C196.163239,252.147522 162.202957,243.792236 130.631943,222.769379 
	C116.929016,213.644730 105.195618,202.363907 95.250923,189.225418 
	C92.579887,185.696564 91.640358,182.024689 94.297295,178.183670 
	C96.427696,175.103836 99.611702,174.340973 103.167381,175.132996 
	C106.007584,175.765656 107.486328,178.068100 109.126663,180.174744 
	C124.871185,200.394882 144.565292,215.343002 168.870178,223.653076 
	C209.288162,237.472412 248.861664,224.407211 275.355621,188.872299 
	C278.040558,185.271149 280.493866,181.495941 283.018311,177.776840 
	C287.161469,171.673035 291.973694,171.134491 297.711304,176.522675 
z"/>
<path fill="#C61D24" opacity="1.000000" stroke="none" 
	d="
M126.129730,120.862030 
	C117.705025,112.770721 109.465317,104.992188 101.443253,96.995331 
	C97.812660,93.376152 97.969063,88.173882 101.307007,84.929230 
	C104.509415,81.816315 109.189651,81.946701 112.986641,85.268379 
	C113.613052,85.816383 114.199387,86.410667 114.797241,86.990776 
	C134.166107,105.784760 153.533035,124.580780 172.903809,143.372787 
	C175.056030,145.460693 177.212418,147.544830 179.396301,149.599442 
	C188.506973,158.170822 200.091202,159.403107 211.447052,153.025711 
	C222.091156,147.048019 228.277817,134.192474 225.934830,123.071526 
	C224.587860,116.678230 220.516846,112.203873 215.903885,107.951744 
	C212.248398,104.582191 212.080872,99.693520 215.079758,96.312691 
	C217.981033,93.041855 222.395630,92.653900 226.358139,95.373489 
	C227.315598,96.030624 228.198196,96.806679 229.066238,97.582825 
	C251.907318,118.005424 245.715424,155.089401 217.181763,168.791336 
	C198.744247,177.645065 180.917694,174.493759 166.475693,160.160660 
	C153.234131,147.018967 139.769730,134.101822 126.129730,120.862030 
z"/>
<path fill="#7E0B6A" opacity="1.000000" stroke="none" 
	d="
M92.349655,138.638504 
	C91.099602,137.506912 90.074753,136.651947 89.119637,135.725113 
	C84.959335,131.688019 84.541740,127.168762 87.953186,123.406227 
	C91.223694,119.799133 96.172928,119.805054 100.328217,123.594055 
	C111.030006,133.352493 121.688942,143.158096 132.339935,152.972046 
	C142.745743,162.560104 153.069366,172.238007 163.530304,181.765305 
	C168.849442,186.609711 175.138138,189.400696 182.413971,189.918854 
	C187.769913,190.300278 191.031540,193.721008 190.844223,198.432861 
	C190.655914,203.169937 187.122604,206.425919 181.722931,206.286240 
	C169.658600,205.974167 159.587158,200.912338 150.862564,192.827194 
	C131.450821,174.838150 112.026291,156.862915 92.349655,138.638504 
z"/>
<path fill="#F36B11" opacity="1.000000" stroke="none" 
	d="
M116.035599,60.348068 
	C116.058975,59.551941 116.080292,59.109085 116.065819,58.335228 
	C117.565048,50.105938 124.875977,47.346031 130.724030,52.929863 
	C139.804657,61.600204 148.801437,70.380157 157.431992,79.989975 
	C157.570587,80.331818 157.645920,80.351875 157.655334,80.389694 
	C161.141617,82.577240 163.732346,85.655426 166.419891,89.039276 
	C166.495575,89.367081 166.584061,89.414810 166.607269,89.459396 
	C170.636993,92.136574 174.022369,95.388710 176.770569,99.749725 
	C176.967529,100.026649 176.999390,100.000763 176.986389,100.016647 
	C178.747635,101.002419 180.480621,102.023933 181.832703,104.036148 
	C182.242859,104.697212 182.431046,105.099304 182.759186,105.801392 
	C183.304428,106.531448 183.681412,106.974754 184.289444,107.596878 
	C184.406845,108.601814 185.147018,108.469406 185.744354,108.911545 
	C187.396744,110.660179 188.866104,112.200119 190.603683,113.913818 
	C191.167618,114.238182 191.428818,114.434654 191.788773,114.883911 
	C191.922012,115.090843 191.996887,115.002281 191.953003,115.040215 
	C192.213074,115.222374 192.460602,115.432922 192.782074,115.918236 
	C194.713120,117.997116 196.513794,119.867546 198.581909,121.921051 
	C199.160400,122.257057 199.431107,122.462120 199.748001,122.967934 
	C199.952316,123.503349 200.132828,123.747330 200.581482,124.055405 
	C204.257080,127.741058 205.022736,132.692856 202.630615,136.137436 
	C200.398911,139.351028 196.358521,140.238297 191.319427,138.300476 
	C184.476974,131.504135 177.985107,124.951752 171.215088,118.215813 
	C170.793182,117.851524 170.649429,117.670776 170.241516,117.265900 
	C168.834457,115.797310 167.691559,114.552834 166.269608,113.156395 
	C165.798447,112.755836 165.581558,112.531158 165.164673,112.174408 
	C164.989441,112.018425 164.999908,111.999390 164.990997,112.006203 
	C163.122620,110.856987 161.219208,109.745522 160.202011,107.270126 
	C159.871735,106.707466 159.680817,106.446526 159.194534,106.128036 
	C158.790848,105.760742 158.581207,105.529037 158.169250,105.166931 
	C157.487946,104.439407 156.986450,103.862625 156.227173,103.154343 
	C152.540405,100.773682 149.518631,98.114967 147.217712,94.255325 
	C147.012497,93.985756 147.000000,94.000000 147.007477,93.994789 
	C146.786362,93.772087 146.561401,93.550919 146.174713,93.156830 
	C146.009354,92.987587 146.000000,93.000000 146.006287,92.995300 
	C145.784485,92.771370 145.559875,92.548645 145.181702,92.144623 
	C145.024628,91.966812 145.001419,92.001282 145.017273,91.987213 
	C135.971603,83.320953 127.288925,74.289558 118.454063,65.410530 
	C117.154655,64.104637 116.031883,62.686310 116.035599,60.348068 
z"/>
<path fill="#C51E24" opacity="1.000000" stroke="none" 
	d="
M157.019440,49.981316 
	C155.200989,48.011703 153.542267,46.371971 152.040054,44.599567 
	C148.571579,40.507233 148.664215,35.773331 152.183456,32.606709 
	C155.687439,29.453814 160.560318,29.634340 164.218658,33.472382 
	C172.586700,42.251465 180.783875,51.193306 189.061890,60.058346 
	C192.237061,63.458679 195.507553,66.772133 198.619217,70.229057 
	C202.497467,74.537628 202.541946,79.239555 198.890625,82.591576 
	C195.187485,85.991165 190.494202,85.733307 186.534912,81.554459 
	C176.707642,71.182228 167.003708,60.693111 157.019440,49.981316 
z"/>
<path fill="#1C1C63" opacity="1.000000" stroke="none" 
	d="
M294.111450,75.667557 
	C304.824951,91.377869 308.762329,109.109283 309.898834,127.617630 
	C310.265869,133.594620 310.178528,139.613571 310.010742,145.605270 
	C309.855865,151.135620 306.147003,154.795013 301.369415,154.601959 
	C296.542542,154.406921 293.334412,150.580582 293.499756,144.945679 
	C294.058563,125.900223 291.926392,107.381271 283.420746,89.983116 
	C277.239471,77.339355 268.012177,67.115059 258.099335,57.396511 
	C253.578445,52.964256 249.026337,48.562160 244.581726,44.054333 
	C240.848175,40.267651 240.534546,35.345375 243.639435,32.003845 
	C247.060181,28.322351 251.850769,28.316889 256.038147,32.247021 
	C261.503906,37.377045 266.820557,42.665947 272.373779,48.169270 
	C272.497498,48.713383 272.448792,48.974720 272.040344,49.402695 
	C269.372162,49.848278 267.913055,48.344376 266.587128,46.894512 
	C262.867676,42.827381 258.315186,39.669735 254.566757,35.624550 
	C252.631149,33.535728 250.204956,31.592241 247.155655,33.769859 
	C244.766129,35.476307 244.948929,39.223423 247.689194,42.170189 
	C252.567215,47.415749 257.655853,52.469650 262.843658,57.405960 
	C277.651581,71.496033 288.221558,88.188759 293.625305,107.924019 
	C296.324127,117.780441 296.677185,127.975021 296.343964,138.174515 
	C296.251526,141.003876 296.211548,143.852417 297.567169,146.488312 
	C298.574402,148.446838 299.549225,150.549881 302.223572,150.322906 
	C305.127106,150.076462 306.114410,147.775711 306.317322,145.397247 
	C306.926483,138.256668 306.804596,131.103485 306.323700,123.944702 
	C305.281158,108.424919 301.014709,93.855324 293.771454,80.122879 
	C293.300934,79.230827 293.083893,78.249077 293.241516,76.838287 
	C293.460510,76.224815 293.594360,75.996895 294.111450,75.667557 
z"/>
<path fill="#7B256C" opacity="1.000000" stroke="none" 
	d="
M250.011169,165.059296 
	C254.623337,155.421844 258.544403,145.775940 259.520935,135.123947 
	C260.909302,119.979279 257.527618,106.412201 246.906052,95.040260 
	C228.842072,75.700157 210.845139,56.297443 192.809814,36.930538 
	C188.296082,32.083538 187.846420,27.381147 191.612946,23.813175 
	C195.341003,20.281666 200.518356,20.814627 204.756439,25.350767 
	C218.277908,39.823200 231.747025,54.344559 245.402023,69.136086 
	C245.573044,69.684624 245.578415,69.944099 245.240417,70.378647 
	C242.974930,70.918732 241.820389,69.724800 240.614029,68.525436 
	C229.419128,57.395275 219.228500,45.335014 208.442810,33.826336 
	C206.278198,31.516619 204.099991,29.211206 201.713852,27.133289 
	C199.312469,25.042101 196.542496,24.392952 194.107162,26.824453 
	C191.610657,29.317030 192.348984,32.053646 194.677826,34.303658 
	C202.947205,42.293114 210.370667,51.074131 218.239822,59.436817 
	C229.524658,71.429375 241.704727,82.671600 251.792694,95.681648 
	C265.185242,112.953484 266.439850,132.313934 258.726044,152.394897 
	C256.970184,156.965851 256.115570,162.155563 251.360001,165.431702 
	C250.747528,165.450043 250.503113,165.395874 250.011169,165.059296 
z"/>
<path fill="#7B256C" opacity="1.000000" stroke="none" 
	d="
M228.867737,184.222992 
	C230.874863,182.789505 232.620804,181.504395 234.679230,180.094666 
	C235.241241,179.730484 235.503159,179.505371 236.035370,179.323349 
	C236.293320,179.352112 236.057617,179.005707 236.179047,179.179047 
	C236.351318,178.570236 237.013336,178.559708 237.754303,178.175964 
	C237.972336,177.978333 238.000000,178.000610 237.991180,177.985291 
	C238.231293,177.776535 238.463745,177.564957 238.851685,177.173706 
	C239.023651,177.012161 238.999954,176.998520 239.005524,177.010834 
	C239.227570,176.785217 239.452454,176.555527 239.877762,176.188202 
	C240.069748,176.042282 240.004776,176.004776 240.023315,176.037384 
	C240.222488,175.797333 240.435715,175.553146 240.873627,175.187531 
	C241.065689,175.037613 241.003464,175.004181 241.020859,175.034912 
	C241.222580,174.796692 241.436752,174.554062 241.870789,174.186066 
	C242.060837,174.034348 242.002701,174.002396 242.018799,174.031387 
	C242.218796,173.791748 242.436890,173.554581 242.856537,173.173767 
	C243.428421,172.654633 243.832947,172.310593 244.485489,171.862518 
	C244.943909,171.901566 245.154297,172.044662 245.524094,172.533691 
	C246.078934,175.182663 244.631363,176.662338 243.217010,178.055801 
	C237.820786,183.372269 231.756744,187.638046 224.377869,189.806519 
	C221.823029,190.557327 219.208542,191.130798 216.726288,192.099945 
	C214.613266,192.924927 212.686432,194.229736 212.982895,196.790268 
	C213.284790,199.397705 215.304214,200.709244 217.712753,201.325592 
	C219.551743,201.796219 221.354172,201.312805 223.129303,200.853714 
	C237.640320,197.101089 248.273056,188.268982 257.287842,176.475601 
	C265.664825,165.516617 270.023560,153.155350 272.456909,140.040833 
	C276.106628,120.370529 270.718048,102.816856 258.072449,87.484962 
	C254.583130,83.254395 250.595474,79.437637 246.981491,75.298935 
	C245.798431,73.944092 244.251984,72.755432 244.773224,70.315460 
	C244.989166,70.010788 245.272263,69.712372 245.419983,69.568756 
	C256.545227,80.741730 268.088776,91.504166 273.293945,107.211838 
	C283.966827,139.419296 267.970856,181.669922 238.457642,198.263306 
	C232.590317,201.562134 226.306534,203.656891 219.707565,204.788681 
	C214.336716,205.709793 209.949509,202.925064 209.077011,198.252335 
	C208.192245,193.513901 211.283539,189.499924 216.607178,188.320129 
	C219.196243,187.746368 221.743332,186.983154 224.648132,186.110443 
	C225.275909,185.676178 225.580948,185.459686 226.182861,185.269836 
	C226.463837,185.274109 226.767288,185.257324 226.878235,185.153488 
	C227.410324,184.542267 228.040222,184.532578 228.867737,184.222992 
z"/>
<path fill="#FCDBB6" opacity="1.000000" stroke="none" 
	d="
M157.678925,79.979263 
	C148.195129,72.601364 140.366547,63.294979 131.662613,54.879051 
	C125.489098,48.909801 120.129364,49.787785 116.280899,57.774799 
	C113.905296,55.353310 116.104378,53.536049 117.636742,52.189407 
	C120.122665,50.004776 123.091141,48.156342 126.692780,49.514824 
	C128.377151,50.150139 130.188858,50.929279 131.439163,52.156429 
	C140.073364,60.630657 148.582764,69.232292 157.094177,77.830688 
	C157.507843,78.248581 157.564407,79.019951 157.678925,79.979263 
z"/>
<path fill="#FCDBB6" opacity="1.000000" stroke="none" 
	d="
M115.766083,60.197090 
	C119.548447,66.791054 125.881111,71.073463 130.858643,76.560143 
	C135.424652,81.593201 140.243698,86.396683 144.992203,91.637238 
	C139.674881,90.318604 136.571732,85.866974 133.250763,81.932304 
	C128.333572,76.106415 121.620201,72.098152 117.319084,65.707130 
	C116.230217,64.089180 114.596558,62.688091 115.766083,60.197090 
z"/>
<path fill="#1C1C63" opacity="1.000000" stroke="none" 
	d="
M272.399597,48.596233 
	C280.912140,56.347897 288.141205,65.177864 294.387268,75.234940 
	C294.494720,75.566139 294.219330,75.805855 294.080505,75.924400 
	C290.747772,76.353233 289.791290,73.544357 288.509277,71.695717 
	C284.076813,65.304153 278.390717,59.999199 273.613953,53.921833 
	C272.613922,52.649506 271.240143,51.540810 271.756683,49.333153 
	C271.965546,49.034500 272.252991,48.740417 272.399597,48.596233 
z"/>
<path fill="#F9D2AB" opacity="1.000000" stroke="none" 
	d="
M191.019226,138.407867 
	C192.092789,138.261490 193.216171,138.469757 194.340851,138.670746 
	C197.618256,139.256485 200.332275,138.108490 202.042709,135.404785 
	C204.349670,131.758102 203.534149,128.178864 200.860855,124.541580 
	C205.677643,126.330536 206.690094,134.502655 202.171448,137.991043 
	C198.881058,140.531219 195.021988,142.278809 191.019226,138.407867 
z"/>
<path fill="#FCDBB6" opacity="1.000000" stroke="none" 
	d="
M176.992798,99.659096 
	C173.013824,97.306244 170.064240,93.554695 166.715424,89.814941 
	C171.960815,90.784195 175.185333,94.299332 176.992798,99.659096 
z"/>
<path fill="#FCDBB6" opacity="1.000000" stroke="none" 
	d="
M166.614685,89.006882 
	C163.052521,87.175980 160.550751,84.004601 157.751099,80.740494 
	C162.211594,81.485832 165.024124,84.457787 166.614685,89.006882 
z"/>
<path fill="#FCDBB6" opacity="1.000000" stroke="none" 
	d="
M146.987396,94.349609 
	C150.476334,96.220650 152.971100,99.470940 155.884369,102.697327 
	C151.322647,102.035507 148.653137,98.904915 146.987396,94.349609 
z"/>
<path fill="#FCDBB6" opacity="1.000000" stroke="none" 
	d="
M182.010071,105.263672 
	C180.159668,103.654480 178.641510,102.158310 177.048370,100.347336 
	C180.338364,99.514175 182.081146,101.238014 182.903152,104.654648 
	C182.744110,105.136826 182.543213,105.256760 182.010071,105.263672 
z"/>
<path fill="#FCDBB6" opacity="1.000000" stroke="none" 
	d="
M159.967438,107.394012 
	C162.150833,107.858765 163.318100,109.807564 164.907181,111.691040 
	C162.058487,112.071289 160.454147,110.568260 159.967438,107.394012 
z"/>
<path fill="#7B256C" opacity="1.000000" stroke="none" 
	d="
M247.727158,167.376709 
	C248.283661,166.348099 248.778107,165.730728 249.518097,164.945129 
	C249.763641,164.776886 249.956863,164.959351 250.053558,165.050507 
	C251.026657,166.625824 250.828644,167.771729 248.698608,168.390945 
	C248.078506,168.157562 247.871811,167.972748 247.727158,167.376709 
z"/>
<path fill="#7B256C" opacity="1.000000" stroke="none" 
	d="
M244.833450,171.849808 
	C244.733505,171.758469 244.809464,171.302048 244.867020,171.077972 
	C245.526978,170.568542 245.496445,169.932098 245.948334,169.271271 
	C246.183762,169.109879 246.080643,169.092209 246.108047,169.136780 
	C246.370087,169.042206 246.604706,168.903076 247.133606,169.049820 
	C247.892410,170.849945 247.753281,172.065521 245.514099,172.278259 
	C245.131882,172.125351 244.933395,171.941147 244.833450,171.849808 
z"/>
<path fill="#F0CCED" opacity="1.000000" stroke="none" 
	d="
M237.658142,177.997299 
	C237.600189,178.388565 237.228043,178.798813 236.578186,179.280731 
	C236.295502,178.631500 236.678177,178.213333 237.658142,177.997299 
z"/>
<path fill="#EAC9EA" opacity="1.000000" stroke="none" 
	d="
M228.809479,184.045593 
	C228.623550,184.405579 228.118164,184.736588 227.300964,185.058624 
	C227.489456,184.705292 227.989746,184.360947 228.809479,184.045593 
z"/>
<path fill="#F0CCED" opacity="1.000000" stroke="none" 
	d="
M245.901215,169.201172 
	C245.936523,169.609787 245.689285,170.109695 245.183289,170.731750 
	C245.155930,170.333420 245.387314,169.812943 245.901215,169.201172 
z"/>
<path fill="#F9D2AB" opacity="1.000000" stroke="none" 
	d="
M185.886780,108.852142 
	C185.465439,108.858795 185.003479,108.597351 184.531006,108.055794 
	C184.962387,108.045143 185.404266,108.314590 185.886780,108.852142 
z"/>
<path fill="#FCDBB6" opacity="1.000000" stroke="none" 
	d="
M158.043564,105.272491 
	C158.295624,105.169479 158.601822,105.322769 158.943008,105.744431 
	C158.684570,105.851471 158.391129,105.690132 158.043564,105.272491 
z"/>
<path fill="#EAC9EA" opacity="1.000000" stroke="none" 
	d="
M226.171417,185.240082 
	C226.162094,185.488052 225.860352,185.702011 225.272736,185.915573 
	C225.284225,185.678802 225.581604,185.442444 226.171417,185.240082 
z"/>
<path fill="#FCDBB6" opacity="1.000000" stroke="none" 
	d="
M145.075851,92.227562 
	C145.324875,92.131470 145.625122,92.296127 145.968964,92.725693 
	C145.717392,92.823166 145.422241,92.655739 145.075851,92.227562 
z"/>
<path fill="#F0CCED" opacity="1.000000" stroke="none" 
	d="
M236.030212,179.320465 
	C236.040451,179.613678 235.787582,179.875259 235.263229,180.053436 
	C235.250183,179.742966 235.508636,179.515900 236.030212,179.320465 
z"/>
<path fill="#FCDBB6" opacity="1.000000" stroke="none" 
	d="
M146.064682,93.247070 
	C146.315506,93.143791 146.621674,93.299995 146.971375,93.722885 
	C146.716629,93.828575 146.418320,93.667564 146.064682,93.247070 
z"/>
<path fill="#F0CCED" opacity="1.000000" stroke="none" 
	d="
M238.779938,177.082031 
	C238.845367,177.294678 238.667068,177.577179 238.235565,177.914856 
	C238.166977,177.697296 238.351608,177.424591 238.779938,177.082031 
z"/>
<path fill="#F0CCED" opacity="1.000000" stroke="none" 
	d="
M239.819580,176.111725 
	C239.890259,176.331772 239.710770,176.621262 239.271179,176.966949 
	C239.197189,176.742493 239.383301,176.461823 239.819580,176.111725 
z"/>
<path fill="#F0CCED" opacity="1.000000" stroke="none" 
	d="
M240.814026,175.114777 
	C240.896652,175.336533 240.727631,175.635468 240.300232,176.002197 
	C240.215363,175.777313 240.388855,175.484650 240.814026,175.114777 
z"/>
<path fill="#F0CCED" opacity="1.000000" stroke="none" 
	d="
M241.809113,174.110992 
	C241.891403,174.332062 241.721970,174.629791 241.295395,174.996582 
	C241.211304,174.772980 241.384354,174.480301 241.809113,174.110992 
z"/>
<path fill="#FCDBB6" opacity="1.000000" stroke="none" 
	d="
M170.034088,117.289734 
	C170.280731,117.193222 170.584122,117.344658 170.912201,117.764175 
	C170.654892,117.867401 170.372864,117.702538 170.034088,117.289734 
z"/>
<path fill="#F0CCED" opacity="1.000000" stroke="none" 
	d="
M242.779572,173.089462 
	C242.865891,173.304962 242.707855,173.611252 242.292374,173.988953 
	C242.201675,173.766998 242.368439,173.473618 242.779572,173.089462 
z"/>
<path fill="#F9D2AB" opacity="1.000000" stroke="none" 
	d="
M181.821518,105.386719 
	C181.888443,105.120834 182.099045,105.091019 182.627335,105.039047 
	C182.968231,105.195824 182.991455,105.374763 182.971069,105.820923 
	C182.606705,105.933029 182.285950,105.777908 181.821518,105.386719 
z"/>
<path fill="#FCDBB6" opacity="1.000000" stroke="none" 
	d="
M165.047638,112.273605 
	C165.292740,112.171143 165.596039,112.323853 165.944946,112.740494 
	C165.695648,112.845886 165.400742,112.687340 165.047638,112.273605 
z"/>
<path fill="#F0CCED" opacity="1.000000" stroke="none" 
	d="
M247.214294,168.796234 
	C247.024292,169.016647 246.584839,169.126144 246.360138,169.153748 
	C246.231384,168.844315 246.327332,168.507309 246.884857,168.083511 
	C247.365707,168.189758 247.384995,168.382782 247.214294,168.796234 
z"/>
<path fill="#F0CCED" opacity="1.000000" stroke="none" 
	d="
M247.585617,167.049225 
	C247.789200,166.965454 247.812851,167.448975 247.808899,167.690994 
	C247.804932,167.933014 247.534973,168.334381 247.322205,168.219391 
	C247.109451,168.104385 246.956360,167.949387 246.879608,167.869293 
	C246.952454,167.532104 247.145508,167.313370 247.585617,167.049225 
z"/>
<path fill="#F9D2AB" opacity="1.000000" stroke="none" 
	d="
M191.871765,114.818619 
	C191.615341,114.931587 191.308655,114.772324 190.936951,114.350319 
	C191.188461,114.240517 191.504990,114.393463 191.871765,114.818619 
z"/>
<path fill="#F9D2AB" opacity="1.000000" stroke="none" 
	d="
M192.874512,115.852310 
	C192.610809,115.954758 192.309189,115.782837 191.958344,115.344528 
	C192.218292,115.244743 192.527435,115.411339 192.874512,115.852310 
z"/>
<path fill="#F9D2AB" opacity="1.000000" stroke="none" 
	d="
M199.817261,122.923462 
	C199.549454,123.016510 199.257828,122.824898 198.907776,122.368698 
	C199.164047,122.282349 199.478745,122.460587 199.817261,122.923462 
z"/>
<path fill="#01026E" opacity="1.000000" stroke="none" 
	d="
M271.627380,48.979465 
	C272.251129,51.962158 274.713684,53.660892 276.421448,55.358749 
	C282.726410,61.626995 287.513885,69.096985 293.657990,75.866760 
	C293.754150,79.704010 296.633392,82.013359 297.966949,85.000931 
	C306.238739,103.532158 308.888580,122.999130 308.014282,143.085388 
	C307.862396,146.575302 307.793427,150.376404 303.778137,151.838272 
	C299.509094,153.392548 295.281769,149.162079 295.022827,143.058853 
	C294.818481,138.242645 295.085419,133.408142 294.956390,128.586761 
	C294.499939,111.529083 289.504150,95.859497 280.616150,81.318611 
	C271.758209,66.826912 259.034210,55.826210 247.355301,43.869705 
	C246.099609,42.584164 244.397552,41.562675 244.075974,39.597626 
	C243.528793,36.254101 243.913940,32.898964 247.367172,31.535751 
	C250.890060,30.145027 253.573120,32.448441 255.988495,34.896717 
	C260.852081,39.826542 265.818268,44.653149 271.627380,48.979465 
z"/>
<path fill="#7F026A" opacity="1.000000" stroke="none" 
	d="
M247.095444,168.333130 
	C247.109451,168.104385 247.459198,168.025940 247.632065,167.979477 
	C249.259094,167.989944 249.950104,167.235931 250.091736,165.488831 
	C255.297913,161.890610 255.910019,156.039413 257.821655,151.095322 
	C263.202301,137.179001 263.899902,123.026360 258.064819,109.012375 
	C255.129471,101.962593 251.123489,95.539032 245.613953,90.110916 
	C236.393692,81.026863 228.095093,71.052277 219.010101,61.868221 
	C210.388168,53.152271 202.789536,43.476765 193.672668,35.265018 
	C190.231659,32.165623 190.206558,29.023289 192.918198,25.688545 
	C195.119186,22.981792 199.685928,23.134869 202.603989,26.128210 
	C213.528946,37.334995 224.024658,48.931152 234.426834,60.628639 
	C237.299316,63.858788 240.378418,67.507072 244.645203,69.964417 
	C248.145355,76.157700 253.529694,80.452019 258.063873,85.412460 
	C266.974030,95.160316 271.733032,106.631157 274.070923,119.458549 
	C276.356171,131.997025 273.109711,143.528229 269.710968,155.442032 
	C266.080444,168.168381 258.489899,178.040390 249.946960,187.215912 
	C242.163925,195.575256 231.935822,200.605164 220.603577,202.893967 
	C216.501282,203.722534 211.381607,200.838776 211.171707,197.397156 
	C210.917557,193.230133 213.718033,191.055023 217.505920,190.322174 
	C227.239227,188.439056 235.610977,184.097275 242.512024,176.957047 
	C243.662140,175.767105 245.042297,174.722168 245.078125,172.474869 
	C246.454651,171.862457 247.039307,171.022354 247.022400,169.363495 
	C247.024292,169.016647 247.081436,168.561874 247.095444,168.333130 
z"/>
</svg>