<svg xmlns="http://www.w3.org/2000/svg" xmlns:xlink="http://www.w3.org/1999/xlink" viewBox="0 0 1443.52 986.59"><defs><style>.cls-1{fill:none;}.cls-2{isolation:isolate;}.cls-3{clip-path:url(#clip-path);}.cls-4{fill:#020163;}.cls-5{fill:url(#Degradado_sin_nombre_24);}.cls-6{opacity:0.38;mix-blend-mode:multiply;fill:url(#Degradado_sin_nombre_27);}</style><clipPath id="clip-path" transform="translate(-2.32 895.45)"><rect class="cls-1" width="1440.21" height="100.14"/></clipPath><linearGradient id="Degradado_sin_nombre_24" x1="2.32" y1="-414.1" x2="1445.84" y2="-414.1" gradientUnits="userSpaceOnUse"><stop offset="0" stop-color="#01036f"/><stop offset="0.53" stop-color="#740089"/><stop offset="1" stop-color="#7a006b"/></linearGradient><linearGradient id="Degradado_sin_nombre_27" x1="2.32" y1="-414.6" x2="1435.03" y2="-414.6" gradientUnits="userSpaceOnUse"><stop offset="0" stop-color="#fc6500"/><stop offset="0.22" stop-color="#fa6201"/><stop offset="0.39" stop-color="#f45904"/><stop offset="0.54" stop-color="#e94909"/><stop offset="0.67" stop-color="#d93211"/><stop offset="0.8" stop-color="#c6161a"/></linearGradient></defs><title>SOLAPA PG2_1</title><g class="cls-2"><g id="Capa_2" data-name="Capa 2"><g id="Capa_1-2" data-name="Capa 1"><g class="cls-3"><path class="cls-4" d="M1445.84-895.45V43.36H780.46c0,26.38-25.24,47.78-56.38,47.78s-56.39-21.4-56.39-47.78H2.32V-895.45Z" transform="translate(-2.32 895.45)"/><path class="cls-5" d="M1445.84-895.45V19.47H780.47c0,26.38-25.25,47.78-56.39,47.78s-56.39-21.4-56.39-47.78H2.32V-895.45Z" transform="translate(-2.32 895.45)"/><path class="cls-6" d="M1435-895.45V19.47H769.66c-.1,62.4-112.7,62.36-112.78,0H2.32C732.52-168.74,425-604.89,610.5-895.45Z" transform="translate(-2.32 895.45)"/></g></g></g></g></svg>