<svg xmlns="http://www.w3.org/2000/svg" xmlns:xlink="http://www.w3.org/1999/xlink" viewBox="0 0 1443.52 1123.83"><defs><style>.cls-1{fill:none;}.cls-2{isolation:isolate;}.cls-3{clip-path:url(#clip-path);}.cls-4{fill:#020163;}.cls-5{fill:url(#Degradado_sin_nombre_24);}.cls-6{opacity:0.38;mix-blend-mode:multiply;fill:url(#Degradado_sin_nombre_27);}</style><clipPath id="clip-path" transform="translate(-0.07 -0.2)"><rect class="cls-1" width="1437.96" height="1020.21"/></clipPath><linearGradient id="Degradado_sin_nombre_24" x1="0.07" y1="548.51" x2="1443.59" y2="548.51" gradientUnits="userSpaceOnUse"><stop offset="0" stop-color="#01036f"/><stop offset="0.53" stop-color="#740089"/><stop offset="1" stop-color="#7a006b"/></linearGradient><linearGradient id="Degradado_sin_nombre_27" x1="0.07" y1="547.95" x2="1432.78" y2="547.95" gradientUnits="userSpaceOnUse"><stop offset="0" stop-color="#fc6500"/><stop offset="0.22" stop-color="#fa6201"/><stop offset="0.39" stop-color="#f45904"/><stop offset="0.54" stop-color="#e94909"/><stop offset="0.67" stop-color="#d93211"/><stop offset="0.8" stop-color="#c6161a"/></linearGradient></defs><title>FONDO PG1_1</title><g class="cls-2"><g id="Capa_2" data-name="Capa 2"><g id="Capa_1-2" data-name="Capa 1"><g class="cls-3"><path class="cls-4" d="M1443.59.2V1069.6H778.21c0,30.06-25.24,54.43-56.38,54.43s-56.39-24.37-56.39-54.43H.07V.2Z" transform="translate(-0.07 -0.2)"/><path class="cls-5" d="M1443.59.2V1042.39H778.22c0,30.06-25.25,54.43-56.39,54.43s-56.39-24.37-56.39-54.43H.07V.2Z" transform="translate(-0.07 -0.2)"/><path class="cls-6" d="M1432.78.2V1042.39H767.41c-.1,71.09-112.7,71-112.78,0H.07C730.27,828,422.71,331.19,608.25.2Z" transform="translate(-0.07 -0.2)"/></g></g></g></g></svg>